<svg width="20" height="21" viewBox="0 0 20 21" fill="none" xmlns="http://www.w3.org/2000/svg">
<path d="M12.2529 9.85554L8.76579 6.36843C8.68934 6.29134 8.59837 6.23016 8.49815 6.1884C8.39793 6.14665 8.29044 6.12515 8.18186 6.12515C8.07329 6.12515 7.9658 6.14665 7.86558 6.1884C7.76535 6.23016 7.67439 6.29134 7.59794 6.36843C7.44476 6.52252 7.35878 6.73097 7.35878 6.94824C7.35878 7.16552 7.44476 7.37396 7.59794 7.52806L10.5093 10.4395L7.59794 13.3509C7.44476 13.505 7.35878 13.7134 7.35878 13.9307C7.35878 14.148 7.44476 14.3564 7.59794 14.5105C7.67479 14.5867 7.76592 14.647 7.86613 14.688C7.96633 14.7289 8.07363 14.7496 8.18186 14.749C8.2901 14.7496 8.3974 14.7289 8.4976 14.688C8.5978 14.647 8.68894 14.5867 8.76579 14.5105L12.2529 11.0234C12.33 10.9469 12.3912 10.856 12.4329 10.7558C12.4747 10.6555 12.4962 10.548 12.4962 10.4395C12.4962 10.3309 12.4747 10.2234 12.4329 10.1232C12.3912 10.023 12.33 9.932 12.2529 9.85554Z" fill="#1D4ED8"/>
</svg>
