<?xml version="1.0" encoding="UTF-8"?>
<svg version="1.1" viewBox="0 0 2048 2048" width="512" height="512" xmlns="http://www.w3.org/2000/svg">
<path transform="translate(1849,127)" d="m0 0h13l12 2 10 4 11 7 9 8 9 13 5 12 2 9v20l-3 11-8 16-9 11-4 4h-2l-2 4-7 6-5 6-7 6-5 6-7 6-5 6-7 6-5 6-7 6-5 6-7 6-5 6-7 6-5 6-7 6-5 6-7 6-5 6-7 6-5 6-7 6-5 6-7 6-5 6-7 6-5 6-7 6-5 6-7 6-5 6-7 6-5 6-7 6-5 6-6 5-2 3h-2l-2 4h-2l-2 4h-2l-2 4h-2l-2 4h-2l-2 4h-2l-2 4h-2l-2 4h-2l-2 4h-2l-2 4h-2l-2 4h-2l-2 4h-2l-2 4h-2l-2 4h-2l-2 4h-2l-2 4h-2l-2 4h-2l-2 4h-2l-2 4h-2l-2 4h-2l-2 4h-2l-2 4h-2l-2 4h-2l-2 4h-2l-2 4h-2l-2 4h-2l-2 4h-2l-2 4h-2l-2 4h-2l-2 4h-2l-2 4h-2l-2 4h-2l-2 4h-2l-2 4h-2l-2 4h-2l-2 4h-2l-2 4h-2l-2 4h-2l-2 4-411 411 2 4 786 786 7 10 5 10 3 10v25l-4 13-6 11-9 10-9 8-15 7-14 3h-16l-13-3-12-6-10-8-780-780-5-4-1-2-4 1-5 4-7 8-771 771-10 8-16 8-13 3h-17l-13-3-12-6-9-7-8-8-8-14-4-11-1-5v-20l4-15 6-11 7-9h2l2-4 782-782-2-4-3-3v-2l-4-2v-2h-2l-7-8-768-768-7-11-5-12-2-8v-18l4-15 6-12 8-10 9-8 16-8 12-3h18l16 4 15 9 17 16 770 770 3 1 610-610 5-6 7-6 5-6 7-6 5-6 7-6 5-6 7-6 5-6 7-6 5-6 7-6 5-6 7-6 5-6 7-6 1-2h2v-2h2v-2h2v-2h2v-2l4-4h2v-2h2v-2h2v-2h2v-2l7-6 1-2h2v-2h2v-2h2v-2h2v-2l4-4h2v-2h2v-2h2v-2h2v-2h2v-2h2v-2h2v-2h2v-2h2v-2h2v-2h2l2-4 8-8h2v-2h2v-2l14-11 13-6z"/>
</svg>
