<svg width="55" height="50" viewBox="0 0 55 50" fill="none" xmlns="http://www.w3.org/2000/svg">
<path d="M47.1438 42.6465L20.6008 15.1357C21.0373 13.9899 21.2996 12.7808 21.378 11.5516C21.4742 10.2449 21.3267 8.93134 20.9438 7.68248C20.4692 6.05309 19.604 4.57495 18.4289 3.38615C17.3777 2.28951 16.1164 1.43351 14.7263 0.873392C13.3362 0.313273 11.8483 0.0614805 10.3586 0.134262H10.1527C9.02222 0.177468 7.90784 0.426542 6.86058 0.87009L11.9132 6.11581L13.3763 7.63497L14.4966 8.79805C14.4795 10.215 14.1345 11.607 13.4907 12.857C13.3354 13.1022 13.1594 13.3325 12.9648 13.5454C11.643 14.584 10.0282 15.1429 8.36956 15.1357L2.79122 9.34408L0.733535 7.20767C0.415664 8.03712 0.207989 8.90749 0.116207 9.7949L0.0474563 10.2934C-0.184278 12.837 0.437458 15.3856 1.80778 17.5093C2.20544 18.121 2.65701 18.6932 3.1567 19.2184C4.10313 20.204 5.22934 20.9844 6.4697 21.5141C7.71005 22.0439 9.03973 22.3125 10.3812 22.3042C11.7911 22.2972 13.1872 22.0154 14.4966 21.4735L36.4672 44.2604L41.9769 49.9572H45.0404L48.0811 46.8002V43.6194L47.1438 42.6465ZM17.1889 29.3153L23.4507 35.806L9.75753 50H5.52555L3.46135 47.8603V43.5092L17.1889 29.3153ZM55 15.05L46.7085 23.6448L40.7565 17.8673L34.4259 24.4295L28.1641 17.9387L34.4603 11.3766L27.0287 3.67344L30.1596 0L40.4813 2.13992L55 15.05Z" fill="#0B0F13"/>
</svg>
