<svg width="45" height="45" viewBox="0 0 45 45" fill="none" xmlns="http://www.w3.org/2000/svg">
<path d="M9.62081 21.4495L21.449 9.62305L17.5713 5.74535L12.1503 11.1664C12.0856 11.2312 12.0088 11.2825 11.9243 11.3176C11.8398 11.3527 11.7492 11.3707 11.6576 11.3707C11.5661 11.3707 11.4755 11.3527 11.391 11.3176C11.3065 11.2825 11.2297 11.2312 11.165 11.1664L10.1798 10.1811C9.90733 9.90869 9.90733 9.46748 10.1798 9.1959L15.6008 3.77486L12.6442 0.817374C11.5553 -0.271579 9.79044 -0.271579 8.70149 0.817374L0.816936 8.70196C-0.271133 9.79091 -0.272012 11.5557 0.816936 12.6447L9.62081 21.4495ZM43.7632 11.184C45.412 9.53516 45.4111 6.86243 43.7632 5.21362L39.7862 1.23661C38.1374 -0.412203 35.4638 -0.412203 33.8141 1.23661L29.7694 5.28041L39.7185 15.2295L43.7632 11.184ZM27.7805 7.27024L1.67737 33.37L0.0285692 42.8128C-0.193791 44.0864 0.915372 45.1955 2.18977 44.9714L11.6335 43.3156L37.7296 17.2185L27.7805 7.27024ZM44.1833 32.3566L41.2267 29.4L35.8057 34.821C35.5332 35.0935 35.092 35.0935 34.8204 34.821L33.8352 33.8358C33.5636 33.5633 33.5636 33.1221 33.8352 32.8505L39.2562 27.4295L35.3768 23.5501L23.5486 35.3765L32.356 44.183C33.445 45.272 35.2098 45.272 36.2987 44.183L44.1833 36.2993C45.2722 35.2104 45.2722 33.4456 44.1833 32.3566Z" fill="#0B0F13"/>
</svg>
