<svg width="50" height="50" viewBox="0 0 50 50" fill="none" xmlns="http://www.w3.org/2000/svg">
<path d="M39.8792 26.9585C39.9626 26.3335 40.0042 25.6876 40.0042 25.0001C40.0042 24.3335 39.9626 23.6668 39.8584 23.0418L44.0876 19.7501C44.4626 19.4585 44.5667 18.896 44.3376 18.4793L40.3376 11.5626C40.0876 11.1043 39.5667 10.9585 39.1084 11.1043L34.1292 13.1043C33.0876 12.3126 31.9834 11.646 30.7542 11.146L30.0042 5.85429C29.9209 5.35429 29.5042 5.00012 29.0042 5.00012H21.0042C20.5042 5.00012 20.1084 5.35429 20.0251 5.85429L19.2751 11.146C18.0459 11.646 16.9209 12.3335 15.9001 13.1043L10.9209 11.1043C10.4626 10.9376 9.94175 11.1043 9.69175 11.5626L5.71258 18.4793C5.46258 18.9168 5.54591 19.4585 5.96258 19.7501L10.1917 23.0418C10.0876 23.6668 10.0042 24.3543 10.0042 25.0001C10.0042 25.646 10.0459 26.3335 10.1501 26.9585L5.92091 30.2501C5.54591 30.5418 5.44175 31.1043 5.67091 31.521L9.67091 38.4376C9.92091 38.896 10.4417 39.0418 10.9001 38.896L15.8792 36.896C16.9209 37.6876 18.0251 38.3543 19.2542 38.8543L20.0042 44.146C20.1084 44.646 20.5042 45.0001 21.0042 45.0001H29.0042C29.5042 45.0001 29.9209 44.646 29.9834 44.146L30.7334 38.8543C31.9626 38.3543 33.0876 37.6876 34.1084 36.896L39.0876 38.896C39.5459 39.0626 40.0667 38.896 40.3167 38.4376L44.3167 31.521C44.5667 31.0626 44.4626 30.5418 44.0667 30.2501L39.8792 26.9585ZM25.0042 32.5001C20.8792 32.5001 17.5042 29.1251 17.5042 25.0001C17.5042 20.8751 20.8792 17.5001 25.0042 17.5001C29.1292 17.5001 32.5042 20.8751 32.5042 25.0001C32.5042 29.1251 29.1292 32.5001 25.0042 32.5001Z" fill="#0B0F13"/>
</svg>
