<svg width="65" height="65" viewBox="0 0 65 65" fill="none" xmlns="http://www.w3.org/2000/svg">
<path d="M45.5 40.625C45.5 41.535 44.785 42.25 43.875 42.25C42.965 42.25 42.25 41.535 42.25 40.625V39H22.75V40.625C22.75 41.535 22.035 42.25 21.125 42.25C20.215 42.25 19.5 41.535 19.5 40.625V39H9.75V48.75C9.75 50.5375 11.2125 52 13 52H52C53.7875 52 55.25 50.5375 55.25 48.75V39H45.5V40.625Z" fill="#0B0F13"/>
<path d="M52 22.75H42.25V16.25C42.25 14.4625 40.7875 13 39 13H26C24.2125 13 22.75 14.4625 22.75 16.25V22.75H13C11.2125 22.75 9.75 24.2125 9.75 26V35.75H19.5V34.125C19.5 33.215 20.215 32.5 21.125 32.5C22.035 32.5 22.75 33.215 22.75 34.125V35.75H42.25V34.125C42.25 33.215 42.965 32.5 43.875 32.5C44.785 32.5 45.5 33.215 45.5 34.125V35.75H55.25V26C55.25 24.2125 53.7875 22.75 52 22.75ZM39 22.75H26V16.25H39V22.75Z" fill="#0B0F13"/>
</svg>
