<svg width="24" height="25" viewBox="0 0 24 25" fill="none" xmlns="http://www.w3.org/2000/svg">
<path d="M12 22.5C13.3667 22.5 14.6583 22.2375 15.875 21.7125C17.0917 21.1875 18.1542 20.4708 19.0625 19.5625C19.9708 18.6542 20.6875 17.5917 21.2125 16.375C21.7375 15.1583 22 13.8667 22 12.5C22 11.1167 21.7375 9.82083 21.2125 8.6125C20.6875 7.40417 19.9708 6.34583 19.0625 5.4375C18.1542 4.52917 17.0917 3.8125 15.875 3.2875C14.6583 2.7625 13.3667 2.5 12 2.5C10.6167 2.5 9.32083 2.7625 8.1125 3.2875C6.90417 3.8125 5.84583 4.52917 4.9375 5.4375C4.02917 6.34583 3.3125 7.40417 2.7875 8.6125C2.2625 9.82083 2 11.1167 2 12.5C2 13.8667 2.2625 15.1583 2.7875 16.375C3.3125 17.5917 4.02917 18.6542 4.9375 19.5625C5.84583 20.4708 6.90417 21.1875 8.1125 21.7125C9.32083 22.2375 10.6167 22.5 12 22.5ZM12 20.45C11.5667 19.85 11.1917 19.225 10.875 18.575C10.5583 17.925 10.3 17.2333 10.1 16.5H13.9C13.7 17.2333 13.4417 17.925 13.125 18.575C12.8083 19.225 12.4333 19.85 12 20.45ZM14.6 20.05C14.9 19.5 15.1625 18.9292 15.3875 18.3375C15.6125 17.7458 15.8 17.1333 15.95 16.5H18.9C18.4167 17.3333 17.8125 18.0583 17.0875 18.675C16.3625 19.2917 15.5333 19.75 14.6 20.05ZM9.4 20.05C8.46667 19.75 7.6375 19.2917 6.9125 18.675C6.1875 18.0583 5.58333 17.3333 5.1 16.5H8.05C8.2 17.1333 8.3875 17.7458 8.6125 18.3375C8.8375 18.9292 9.1 19.5 9.4 20.05ZM19.75 14.5H16.35C16.4 14.1667 16.4375 13.8375 16.4625 13.5125C16.4875 13.1875 16.5 12.85 16.5 12.5C16.5 12.15 16.4875 11.8125 16.4625 11.4875C16.4375 11.1625 16.4 10.8333 16.35 10.5H19.75C19.8333 10.8333 19.8958 11.1625 19.9375 11.4875C19.9792 11.8125 20 12.15 20 12.5C20 12.85 19.9792 13.1875 19.9375 13.5125C19.8958 13.8375 19.8333 14.1667 19.75 14.5ZM14.35 14.5H9.65C9.6 14.1667 9.5625 13.8375 9.5375 13.5125C9.5125 13.1875 9.5 12.85 9.5 12.5C9.5 12.15 9.5125 11.8125 9.5375 11.4875C9.5625 11.1625 9.6 10.8333 9.65 10.5H14.35C14.4 10.8333 14.4375 11.1625 14.4625 11.4875C14.4875 11.8125 14.5 12.15 14.5 12.5C14.5 12.85 14.4875 13.1875 14.4625 13.5125C14.4375 13.8375 14.4 14.1667 14.35 14.5ZM7.65 14.5H4.25C4.16667 14.1667 4.10417 13.8375 4.0625 13.5125C4.02083 13.1875 4 12.85 4 12.5C4 12.15 4.02083 11.8125 4.0625 11.4875C4.10417 11.1625 4.16667 10.8333 4.25 10.5H7.65C7.6 10.8333 7.5625 11.1625 7.5375 11.4875C7.5125 11.8125 7.5 12.15 7.5 12.5C7.5 12.85 7.5125 13.1875 7.5375 13.5125C7.5625 13.8375 7.6 14.1667 7.65 14.5ZM8.05 8.5H5.1C5.58333 7.66667 6.1875 6.94167 6.9125 6.325C7.6375 5.70833 8.46667 5.25 9.4 4.95C9.1 5.5 8.8375 6.07083 8.6125 6.6625C8.3875 7.25417 8.2 7.86667 8.05 8.5ZM13.9 8.5H10.1C10.3 7.76667 10.5583 7.075 10.875 6.425C11.1917 5.775 11.5667 5.15 12 4.55C12.4333 5.15 12.8083 5.775 13.125 6.425C13.4417 7.075 13.7 7.76667 13.9 8.5ZM18.9 8.5H15.95C15.8 7.86667 15.6125 7.25417 15.3875 6.6625C15.1625 6.07083 14.9 5.5 14.6 4.95C15.5333 5.25 16.3625 5.70833 17.0875 6.325C17.8125 6.94167 18.4167 7.66667 18.9 8.5Z" fill="#FEF7FF"/>
</svg>
